<svg height="480pt" viewBox="0 -40 480 480" width="480pt" xmlns="http://www.w3.org/2000/svg"><path d="m368 0h-336c-17.671875 0-32 14.328125-32 32v336c0 17.671875 14.328125 32 32 32h336c17.671875 0 32-14.328125 32-32v-336c0-17.671875-14.328125-32-32-32zm0 0" fill="#edeff1"/><path d="m400 80h-400v-48c0-17.671875 14.328125-32 32-32h336c17.671875 0 32 14.328125 32 32zm0 0" fill="#6e83b7"/><path d="m72 40c0 8.835938-7.164062 16-16 16s-16-7.164062-16-16 7.164062-16 16-16 16 7.164062 16 16zm0 0" fill="#ffb0aa"/><path d="m120 40c0 8.835938-7.164062 16-16 16s-16-7.164062-16-16 7.164062-16 16-16 16 7.164062 16 16zm0 0" fill="#ffe352"/><path d="m168 40c0 8.835938-7.164062 16-16 16s-16-7.164062-16-16 7.164062-16 16-16 16 7.164062 16 16zm0 0" fill="#98ca69"/><path d="m24 240h224v64h-224zm0 0" fill="#80d6fb"/><g fill="#d3d3d3"><path d="m32 120h48v16h-48zm0 0"/><path d="m104 120h48v16h-48zm0 0"/><path d="m176 120h48v16h-48zm0 0"/><path d="m248 120h48v16h-48zm0 0"/><path d="m320 120h48v16h-48zm0 0"/><path d="m32 168h208v16h-208zm0 0"/><path d="m32 200h120v16h-120zm0 0"/></g><path d="m32 248h208v16h-208zm0 0" fill="#edeff1"/><path d="m32 280h120v16h-120zm0 0" fill="#edeff1"/><path d="m448 176h-128c-17.671875 0-32 14.328125-32 32v48l-24 16 24 16v48c0 17.671875 14.328125 32 32 32h128c17.671875 0 32-14.328125 32-32v-128c0-17.671875-14.328125-32-32-32zm0 0" fill="#80d6fb"/><path d="m336 304h-16c-8.839844 0-16-7.160156-16-16v-32c0-8.839844 7.160156-16 16-16h16zm0 0" fill="#ffb0aa"/><path d="m336 240v64l56 32v-128zm0 0" fill="#edeff1"/><path d="m408 336v-16c26.472656 0 48-21.527344 48-48s-21.527344-48-48-48v-16c35.289062 0 64 28.710938 64 64s-28.710938 64-64 64zm0 0" fill="#edeff1"/><path d="m408 312v-16c13.230469 0 24-10.769531 24-24s-10.769531-24-24-24v-16c22.054688 0 40 17.945312 40 40s-17.945312 40-40 40zm0 0" fill="#edeff1"/></svg>