<svg height="481pt" viewBox="-129 0 481 481.95418" width="481pt" xmlns="http://www.w3.org/2000/svg"><path d="m192.25 128h-104v.007812c-7.390625-.007812-14.046875 5.128907-15.652344 12.65625l-8.347656 39.121094 31.296875 6.679688.632813-2.96875.070312.503906v80h96v-80h32v-24c0-17.671875-14.328125-32-32-32zm0 0" fill="#ffb0aa"/><path d="m60.316406 255.03125 7.765625 1.9375-55.902343 224.039062-7.761719-1.9375zm0 0" fill="#6e83b7"/><path d="m4.488281 462.039062 15.515625 3.882813-4.011718 16.03125-15.515626-3.882813zm0 0" fill="#6e83b7"/><path d="m208.25 296c-8.839844 0-16-7.160156-16-16v-96h32v96c0 8.839844-7.160156 16-16 16zm0 0" fill="#ffd3b3"/><path d="m144.25 144c-8.839844 0-16-7.160156-16-16v-16h32v16c0 8.839844-7.160156 16-16 16zm0 0" fill="#fcb98b"/><path d="m96.25 264v208h40v-160h16v160h40v-208zm0 0" fill="#80d6fb"/><path d="m100.25 480h32c6.625 0 12-5.375 12-12s-5.375-12-12-12h-32c-6.621094 0-12 5.375-12 12s5.378906 12 12 12zm0 0" fill="#6e83b7"/><path d="m156.25 480h32c6.625 0 12-5.375 12-12s-5.375-12-12-12h-32c-6.621094 0-12 5.375-12 12s5.378906 12 12 12zm0 0" fill="#6e83b7"/><g fill="#ffd3b3"><path d="m192.25 80h-8v-24h8c4.417969 0 8 3.585938 8 8v8c0 4.414062-3.582031 8-8 8zm0 0"/><path d="m96.25 56h8v24h-8c-4.414062 0-8-3.585938-8-8v-8c0-4.414062 3.585938-8 8-8zm0 0"/><path d="m144.25 120c-26.511719 0-48-21.488281-48-48v-24h96v24c0 26.511719-21.484375 48-48 48zm0 0"/></g><path d="m96.25 72 8-16h80l8 16v-40c0-8.839844-7.160156-16-16-16 0-8.839844-7.160156-16-16-16h-32c-17.671875 0-32 14.328125-32 32zm0 0" fill="#6e83b7"/><path d="m192.25 176h32v8h-32zm0 0" fill="#ff7b7b"/><path d="m56.515625 292.65625c8.640625 1.847656 17.144531-3.664062 18.984375-12.304688l20.039062-93.886718-31.289062-6.679688-20.039062 93.886719c-1.847657 8.640625 3.664062 17.136719 12.304687 18.984375zm0 0" fill="#ffd3b3"/><path d="m95.550781 186.449219-31.296875-6.679688 1.671875-7.824219 31.292969 6.679688zm0 0" fill="#ff7b7b"/><path d="m96.25 56v8h8v4c0 6.625 5.378906 12 12 12h8c6.625 0 12-5.375 12-12 0-2.207031 1.792969-4 4-4h8c2.210938 0 4 1.792969 4 4 0 6.625 5.378906 12 12 12h8c6.625 0 12-5.375 12-12v-4h8v-8zm0 0" fill="#edeff1"/><path d="m108.25 68v-8h24v8c0 4.414062-3.582031 8-8 8h-8c-4.414062 0-8-3.585938-8-8zm0 0" fill="#6e83b7"/><path d="m156.25 68v-8h24v8c0 4.414062-3.582031 8-8 8h-8c-4.414062 0-8-3.585938-8-8zm0 0" fill="#6e83b7"/></svg>